<?xml version="1.0" encoding="UTF-8" standalone="no"?>
<svg
   width="155.11"
   height="178.75301"
   viewBox="0 0 155.11 178.75301"
   fill="none"
   version="1.1"
   id="svg4"
   sodipodi:docname="mcp.svg"
   inkscape:version="1.3.2 (091e20e, 2023-11-25, custom)"
   xmlns:inkscape="http://www.inkscape.org/namespaces/inkscape"
   xmlns:sodipodi="http://sodipodi.sourceforge.net/DTD/sodipodi-0.dtd"
   xmlns="http://www.w3.org/2000/svg"
   xmlns:svg="http://www.w3.org/2000/svg">
  <defs
     id="defs4" />
  <sodipodi:namedview
     id="namedview4"
     pagecolor="#505050"
     bordercolor="#eeeeee"
     borderopacity="1"
     inkscape:showpageshadow="0"
     inkscape:pageopacity="0"
     inkscape:pagecheckerboard="0"
     inkscape:deskcolor="#505050"
     inkscape:zoom="0.38576101"
     inkscape:cx="6.4806964"
     inkscape:cy="325.33096"
     inkscape:window-width="1920"
     inkscape:window-height="991"
     inkscape:window-x="-9"
     inkscape:window-y="-9"
     inkscape:window-maximized="1"
     inkscape:current-layer="svg4" />
  <path
     d="m 6,80.873966 67.8823,-67.8822 c 9.3727,-9.3726005 24.5687,-9.3726005 33.9407,0 v 0 c 9.373,9.3725 9.373,24.5685 0,33.9411 l -51.2649,51.2653"
     stroke="#000000"
     stroke-width="12"
     stroke-linecap="round"
     id="path1" />
  <path
     d="m 57.2653,97.491166 50.5577,-50.5583 c 9.373,-9.3726 24.569,-9.3726 33.942,0 l 0.353,0.3535 c 9.373,9.3726 9.373,24.5686 0,33.9411 L 80.7248,142.62117 c -3.1242,3.124 -3.1242,8.189 0,11.313 l 12.6062,12.607"
     stroke="#000000"
     stroke-width="12"
     stroke-linecap="round"
     id="path2" />
  <path
     d="m 57.265,97.491146 50.5577,-50.558 c 9.373,-9.373 24.569,-9.373 33.942,0 l 0.353,0.353 c 9.373,9.373 9.373,24.569 0,33.941 L 80.7245,142.62115"
     stroke="#000000"
     stroke-width="12"
     stroke-linecap="round"
     id="path2-7"
     style="stroke:#c4eed0;stroke-linecap:butt;stroke-opacity:1"
     sodipodi:nodetypes="ccsscc" />
  <path
     d="M 90.853,29.962266 22.6482,98.166866 56.5894,132.10817 124.794,63.903366"
     stroke="#000000"
     stroke-width="12"
     stroke-linecap="round"
     id="path3"
     sodipodi:nodetypes="cccc" />
  <path
     d="m 6,80.874132 67.8823,-67.8822 c 9.3727,-9.3726005 24.5687,-9.3726005 33.9407,0 v 0 c 9.373,9.3725 9.373,24.5685 0,33.9411 L 56.5581,98.198336"
     stroke="#000000"
     stroke-width="12"
     stroke-linecap="round"
     id="path1-5"
     style="stroke:#c4eed0;stroke-opacity:1" />
  <path
     style="fill:none;stroke:#1ea446;stroke-width:12.2;stroke-linecap:round;stroke-linejoin:round;stroke-dasharray:none;stroke-opacity:1"
     d="M 144.92027,78.358856 74.928755,148.35038 99.23136,172.65301"
     id="path4"
     sodipodi:nodetypes="ccc" />
</svg>
